<svg aria-hidden="true" style="position: absolute; width: 0; height: 0; overflow: hidden;" version="1.1" xmlns="http://www.w3.org/2000/svg" xmlns:xlink="http://www.w3.org/1999/xlink">
<defs>
<symbol id="icon-search" viewBox="0 0 32 32">
<path d="M31.462 27.396l-9.5-9.513c1.036-1.704 1.657-3.762 1.676-5.962l0-0.005c0.043-6.535-5.211-11.869-11.738-11.916s-11.853 5.214-11.9 11.75 5.206 11.869 11.732 11.916c0.022 0 0.049 0 0.075 0 2.256 0 4.363-0.636 6.152-1.738l-0.051 0.029 9.493 9.505c0.335 0.333 0.796 0.538 1.305 0.538s0.971-0.206 1.305-0.538l1.45-1.451c0.333-0.335 0.538-0.797 0.538-1.307s-0.206-0.972-0.539-1.308l0 0zM11.75 20.956c-5.034-0.034-9.084-4.148-9.047-9.188s4.144-9.096 9.178-9.063 9.083 4.149 9.048 9.188c-0.038 5.013-4.111 9.063-9.129 9.063-0.017 0-0.034-0-0.051-0h0.003z"></path>
</symbol>
<symbol id="icon-play" viewBox="0 0 32 32">
<path d="M31.063 1.471l-1.485-1.471-20.958 6.721v17.804c-0.663-0.219-1.426-0.345-2.219-0.345-0.001 0-0.002 0-0.004 0h0c-3.017 0-5.461 1.75-5.461 3.911s2.443 3.909 5.46 3.909 5.456-1.75 5.456-3.909c-0.004-0.246-0.038-0.482-0.1-0.707l0.005 0.020v-14.676l14.688-4.713v11.101c-0.691-0.243-1.489-0.383-2.319-0.383-0.001 0-0.003 0-0.004 0h0c-3.017 0-5.458 1.75-5.458 3.909s2.441 3.91 5.458 3.91 5.456-1.75 5.456-3.91c0-0.001 0-0.003 0-0.005 0-0.274-0.040-0.539-0.114-0.789l0.005 0.020 0.109-0.036z"></path>
</symbol>
</defs>
</svg>
